Disc Title:     SHREK FOREVER AFTER 3D
Disc Label:     Shrek.4.3DBD.2010.complete.Bluray.untouched.german.ML-mvc-HDA
Disc Size:      34,857,039,391 bytes
Protection:     AACS
Extras:         BD-Java
BDInfo:         0.7.5.5

Notes:          

BDINFO HOME:
  Cinema Squid (old)
    http://www.cinemasquid.com/blu-ray/tools/bdinfo
  UniqProject GitHub (new)
   https://github.com/UniqProject/BDInfo

INCLUDES FORUMS REPORT FOR:
  AVS Forum Blu-ray Audio and Video Specifications Thread
    http://www.avsforum.com/avs-vb/showthread.php?t=1155731


********************
PLAYLIST: 01000.MPLS
********************

<--- BEGIN FORUMS PASTE --->
[code]
                                                                                                                Total   Video                                             
Title                                                           Codec   Length  Movie Size      Disc Size       Bitrate Bitrate Main Audio Track                          Secondary Audio Track
-----                                                           ------  ------- --------------  --------------  ------- ------- ------------------                        ---------------------
01000.MPLS                                                      AVC     1:33:14 23,962,441,728  34,857,039,391  34.27   19.70   DD AC3 5.1 640Kbps                        
[/code]

[code]

DISC INFO:

Disc Title:     SHREK FOREVER AFTER 3D
Disc Label:     Shrek.4.3DBD.2010.complete.Bluray.untouched.german.ML-mvc-HDA
Disc Size:      34,857,039,391 bytes
Protection:     AACS
Extras:         BD-Java
BDInfo:         0.7.5.5

PLAYLIST REPORT:

Name:                   01000.MPLS
Length:                 1:33:14.589 (h:m:s.ms)
Size:                   23,962,441,728 bytes
Total Bitrate:          34.27 Mbps

VIDEO:

Codec                   Bitrate             Description     
-----                   -------             -----------     
MPEG-4 AVC Video        19696 kbps          1080p / 23.976 fps / 16:9 / High Profile 4.1

AUDIO:

Codec                           Language        Bitrate         Description     
-----                           --------        -------         -----------     
Dolby Digital Audio             German          640 kbps        5.1 / 48 kHz /   640 kbps / DN -27dB
Dolby TrueHD Audio              English         5053 kbps       7.1 / 48 kHz /  4413 kbps / 24-bit (AC3 Embedded: 5.1 / 48 kHz /   640 kbps / DN -31dB)
Dolby Digital Audio             Spanish         640 kbps        5.1 / 48 kHz /   640 kbps / DN -27dB
Dolby Digital Audio             French          640 kbps        5.1 / 48 kHz /   640 kbps / DN -27dB
Dolby Digital Audio             Italian         640 kbps        5.1 / 48 kHz /   640 kbps / DN -27dB
Dolby Digital Audio             Korean          640 kbps        5.1 / 48 kHz /   640 kbps / DN -27dB
Dolby Digital Audio             Chinese         640 kbps        5.1 / 48 kHz /   640 kbps / DN -27dB
Dolby Digital Audio             Dutch           640 kbps        5.1 / 48 kHz /   640 kbps / DN -27dB
Dolby Digital Audio             Portuguese      640 kbps        5.1 / 48 kHz /   640 kbps / DN -27dB
Dolby Digital Audio             Russian         640 kbps        5.1 / 48 kHz /   640 kbps / DN -27dB
Dolby Digital Audio             Turkish         640 kbps        5.1 / 48 kHz /   640 kbps / DN -27dB

SUBTITLES:

Codec                           Language        Bitrate         Description     
-----                           --------        -------         -----------     
Presentation Graphics           German          0.022 kbps                      
Presentation Graphics           English         0.026 kbps                      
Presentation Graphics           Spanish         0.025 kbps                      
Presentation Graphics           French          0.025 kbps                      
Presentation Graphics           Italian         0.040 kbps                      
Presentation Graphics           Korean          0.016 kbps                      
Presentation Graphics           Chinese         0.022 kbps                      
Presentation Graphics           Dutch           0.035 kbps                      
Presentation Graphics           Portuguese      0.024 kbps                      
Presentation Graphics           Russian         0.018 kbps                      
Presentation Graphics           Turkish         0.032 kbps                      

FILES:

Name            Time In         Length          Size            Total Bitrate   
----            -------         ------          ----            -------------   
00000.M2TS      0:00:00.000     1:33:13.588     23,962,324,992  34,271          
00066.M2TS      1:33:13.588     0:00:01.001     116,736         933             

CHAPTERS:

Number          Time In         Length          Avg Video Rate  Max 1-Sec Rate  Max 1-Sec Time  Max 5-Sec Rate  Max 5-Sec Time  Max 10Sec Rate  Max 10Sec Time  Avg Frame Size  Max Frame Size  Max Frame Time  
------          -------         ------          --------------  --------------  --------------  --------------  --------------  --------------  --------------  --------------  --------------  --------------  
1               0:00:00.000     0:05:32.373     19,274 kbps     26,563 kbps     00:01:10.945    23,162 kbps     00:05:19.277    22,401 kbps     00:01:33.510    100,476 bytes   749,150 bytes   00:05:31.581    
2               0:05:32.373     0:07:11.264     20,128 kbps     28,958 kbps     00:08:50.196    23,770 kbps     00:07:20.356    22,834 kbps     00:07:16.144    104,936 bytes   934,211 bytes   00:06:58.751    
3               0:12:43.637     0:07:00.545     19,742 kbps     26,455 kbps     00:12:47.391    23,732 kbps     00:14:57.605    22,631 kbps     00:17:40.934    102,924 bytes   719,935 bytes   00:14:32.746    
4               0:19:44.183     0:04:57.297     20,367 kbps     26,082 kbps     00:22:25.802    23,432 kbps     00:23:02.631    22,797 kbps     00:20:12.085    106,185 bytes   669,896 bytes   00:23:43.296    
5               0:24:41.480     0:06:53.246     20,237 kbps     25,988 kbps     00:27:24.100    23,596 kbps     00:25:21.853    22,823 kbps     00:28:31.042    105,505 bytes   794,524 bytes   00:25:26.858    
6               0:31:34.726     0:06:17.585     20,747 kbps     27,393 kbps     00:36:43.034    23,868 kbps     00:34:33.529    22,891 kbps     00:34:33.529    108,167 bytes   898,346 bytes   00:34:22.018    
7               0:37:52.311     0:04:44.242     20,201 kbps     28,400 kbps     00:40:45.985    23,690 kbps     00:40:32.471    23,017 kbps     00:40:37.393    105,317 bytes   777,656 bytes   00:40:37.476    
8               0:42:36.554     0:05:54.896     18,774 kbps     26,415 kbps     00:47:17.376    22,102 kbps     00:47:17.417    20,968 kbps     00:47:41.358    97,876 bytes    691,246 bytes   00:46:55.687    
9               0:48:31.450     0:05:50.767     18,516 kbps     24,991 kbps     00:49:28.590    22,394 kbps     00:49:27.589    20,612 kbps     00:53:52.270    96,535 bytes    597,155 bytes   00:52:09.751    
10              0:54:22.217     0:05:31.539     18,948 kbps     25,585 kbps     00:56:09.908    22,618 kbps     00:58:40.642    21,678 kbps     00:58:40.558    98,784 bytes    566,950 bytes   00:55:01.089    
11              0:59:53.756     0:05:54.103     18,398 kbps     24,512 kbps     01:02:12.228    22,177 kbps     01:02:02.093    21,834 kbps     01:02:03.344    95,920 bytes    494,448 bytes   01:02:23.740    
12              1:05:47.860     0:04:42.782     18,370 kbps     28,004 kbps     01:06:53.968    23,618 kbps     01:06:39.161    21,667 kbps     01:06:46.836    95,771 bytes    695,732 bytes   01:06:26.273    
13              1:10:30.643     0:04:33.064     18,893 kbps     24,912 kbps     01:13:38.080    23,238 kbps     01:12:52.034    22,220 kbps     01:12:46.028    98,499 bytes    488,569 bytes   01:13:50.050    
14              1:15:03.707     0:04:52.083     19,240 kbps     24,933 kbps     01:19:34.186    21,815 kbps     01:19:21.882    20,906 kbps     01:16:58.530    100,307 bytes   470,554 bytes   01:17:16.423    
15              1:19:55.790     0:06:04.572     19,369 kbps     27,316 kbps     01:25:43.304    23,876 kbps     01:23:19.160    22,994 kbps     01:23:15.156    100,980 bytes   742,379 bytes   01:21:40.145    
16              1:26:00.363     0:07:13.224     22,661 kbps     27,535 kbps     01:32:13.069    25,078 kbps     01:30:33.928    24,320 kbps     01:30:34.595    118,144 bytes   854,846 bytes   01:26:31.019    
17              1:33:13.588     0:00:01.001     93 kbps         0 kbps          00:00:00.000    0 kbps          00:00:00.000    0 kbps          00:00:00.000    506 bytes       830 bytes       01:33:13.713    

STREAM DIAGNOSTICS:

File            PID             Type            Codec           Language                Seconds                 Bitrate                 Bytes           Packets         
----            ---             ----            -----           --------                --------------          --------------          -------------   -----           
00000.M2TS      4113 (0x1011)   0x1B            AVC                                     5593.505                19,699                  13,773,583,463  74,935,176      
00000.M2TS      4352 (0x1100)   0x81            AC3             deu (German)            5593.505                640                     447,472,640     2,621,910       
00000.M2TS      4353 (0x1101)   0x83            TrueHD          eng (English)           5593.505                5,054                   3,533,538,322   23,233,154      
00000.M2TS      4354 (0x1102)   0x81            AC3             spa (Spanish)           5593.505                640                     447,472,640     2,621,910       
00000.M2TS      4355 (0x1103)   0x81            AC3             fra (French)            5593.505                640                     447,472,639     2,621,909       
00000.M2TS      4356 (0x1104)   0x81            AC3             ita (Italian)           5593.505                640                     447,472,640     2,621,910       
00000.M2TS      4357 (0x1105)   0x81            AC3             kor (Korean)            5593.505                640                     447,472,640     2,621,910       
00000.M2TS      4358 (0x1106)   0x81            AC3             zho (Chinese)           5593.505                640                     447,472,640     2,621,910       
00000.M2TS      4359 (0x1107)   0x81            AC3             nld (Dutch)             5593.505                640                     447,472,640     2,621,910       
00000.M2TS      4360 (0x1108)   0x81            AC3             por (Portuguese)        5593.505                640                     447,472,640     2,621,910       
00000.M2TS      4361 (0x1109)   0x81            AC3             rus (Russian)           5593.505                640                     447,472,640     2,621,910       
00000.M2TS      4362 (0x110A)   0x81            AC3             tur (Turkish)           5593.505                640                     447,472,640     2,621,910       
00000.M2TS      4608 (0x1200)   0x90            PGS             deu (German)            5593.505                0                       15,464          91              
00000.M2TS      4609 (0x1201)   0x90            PGS             eng (English)           5593.505                0                       17,848          104             
00000.M2TS      4610 (0x1202)   0x90            PGS             spa (Spanish)           5593.505                0                       17,228          100             
00000.M2TS      4611 (0x1203)   0x90            PGS             fra (French)            5593.505                0                       17,198          101             
00000.M2TS      4612 (0x1204)   0x90            PGS             ita (Italian)           5593.505                0                       27,626          157             
00000.M2TS      4613 (0x1205)   0x90            PGS             kor (Korean)            5593.505                0                       11,254          68              
00000.M2TS      4614 (0x1206)   0x90            PGS             zho (Chinese)           5593.505                0                       15,232          90              
00000.M2TS      4615 (0x1207)   0x90            PGS             nld (Dutch)             5593.505                0                       24,786          141             
00000.M2TS      4616 (0x1208)   0x90            PGS             por (Portuguese)        5593.505                0                       16,629          97              
00000.M2TS      4617 (0x1209)   0x90            PGS             rus (Russian)           5593.505                0                       12,327          74              
00000.M2TS      4618 (0x120A)   0x90            PGS             tur (Turkish)           5593.505                0                       22,137          127             
00066.M2TS      4113 (0x1011)   0x1B            AVC                                     0.918                   110                     12,567          77              

[/code]
<---- END FORUMS PASTE ---->

QUICK SUMMARY:

Disc Title: SHREK FOREVER AFTER 3D
Disc Label: Shrek.4.3DBD.2010.complete.Bluray.untouched.german.ML-mvc-HDA
Disc Size: 34,857,039,391 bytes
Protection: AACS
Playlist: 01000.MPLS
Size: 23,962,441,728 bytes
Length: 1:33:14.589
Total Bitrate: 34.27 Mbps
Video: MPEG-4 AVC Video / 19696 kbps / 1080p / 23.976 fps / 16:9 / High Profile 4.1
Audio: German / Dolby Digital Audio / 5.1 / 48 kHz /   640 kbps / DN -27dB
Audio: English / Dolby TrueHD Audio / 7.1 / 48 kHz /  4413 kbps / 24-bit (AC3 Embedded: 5.1 / 48 kHz /   640 kbps / DN -31dB)
Audio: Spanish / Dolby Digital Audio / 5.1 / 48 kHz /   640 kbps / DN -27dB
Audio: French / Dolby Digital Audio / 5.1 / 48 kHz /   640 kbps / DN -27dB
Audio: Italian / Dolby Digital Audio / 5.1 / 48 kHz /   640 kbps / DN -27dB
Audio: Korean / Dolby Digital Audio / 5.1 / 48 kHz /   640 kbps / DN -27dB
Audio: Chinese / Dolby Digital Audio / 5.1 / 48 kHz /   640 kbps / DN -27dB
Audio: Dutch / Dolby Digital Audio / 5.1 / 48 kHz /   640 kbps / DN -27dB
Audio: Portuguese / Dolby Digital Audio / 5.1 / 48 kHz /   640 kbps / DN -27dB
Audio: Russian / Dolby Digital Audio / 5.1 / 48 kHz /   640 kbps / DN -27dB
Audio: Turkish / Dolby Digital Audio / 5.1 / 48 kHz /   640 kbps / DN -27dB
Subtitle: German / 0.022 kbps
Subtitle: English / 0.026 kbps
Subtitle: Spanish / 0.025 kbps
Subtitle: French / 0.025 kbps
Subtitle: Italian / 0.040 kbps
Subtitle: Korean / 0.016 kbps
Subtitle: Chinese / 0.022 kbps
Subtitle: Dutch / 0.035 kbps
Subtitle: Portuguese / 0.024 kbps
Subtitle: Russian / 0.018 kbps
Subtitle: Turkish / 0.032 kbps


********************
PLAYLIST: 01500.MPLS
********************

<--- BEGIN FORUMS PASTE --->
[code]
                                                                                                                Total   Video                                             
Title                                                           Codec   Length  Movie Size      Disc Size       Bitrate Bitrate Main Audio Track                          Secondary Audio Track
-----                                                           ------  ------- --------------  --------------  ------- ------- ------------------                        ---------------------
01500.MPLS                                                      AVC     1:33:14 23,962,441,728  34,857,039,391  34.27   19.70   DD AC3 5.1 640Kbps                        
[/code]

[code]

DISC INFO:

Disc Title:     SHREK FOREVER AFTER 3D
Disc Label:     Shrek.4.3DBD.2010.complete.Bluray.untouched.german.ML-mvc-HDA
Disc Size:      34,857,039,391 bytes
Protection:     AACS
Extras:         BD-Java
BDInfo:         0.7.5.5

PLAYLIST REPORT:

Name:                   01500.MPLS
Length:                 1:33:14.589 (h:m:s.ms)
Size:                   23,962,441,728 bytes
Total Bitrate:          34.27 Mbps

VIDEO:

Codec                   Bitrate             Description     
-----                   -------             -----------     
MPEG-4 AVC Video        19696 kbps          1080p / 23.976 fps / 16:9 / High Profile 4.1

AUDIO:

Codec                           Language        Bitrate         Description     
-----                           --------        -------         -----------     
Dolby Digital Audio             German          640 kbps        5.1 / 48 kHz /   640 kbps / DN -27dB
Dolby TrueHD Audio              English         5053 kbps       7.1 / 48 kHz /  4413 kbps / 24-bit (AC3 Embedded: 5.1 / 48 kHz /   640 kbps / DN -31dB)
Dolby Digital Audio             Spanish         640 kbps        5.1 / 48 kHz /   640 kbps / DN -27dB
Dolby Digital Audio             French          640 kbps        5.1 / 48 kHz /   640 kbps / DN -27dB
Dolby Digital Audio             Italian         640 kbps        5.1 / 48 kHz /   640 kbps / DN -27dB
Dolby Digital Audio             Korean          640 kbps        5.1 / 48 kHz /   640 kbps / DN -27dB
Dolby Digital Audio             Chinese         640 kbps        5.1 / 48 kHz /   640 kbps / DN -27dB
Dolby Digital Audio             Dutch           640 kbps        5.1 / 48 kHz /   640 kbps / DN -27dB
Dolby Digital Audio             Portuguese      640 kbps        5.1 / 48 kHz /   640 kbps / DN -27dB
Dolby Digital Audio             Russian         640 kbps        5.1 / 48 kHz /   640 kbps / DN -27dB
Dolby Digital Audio             Turkish         640 kbps        5.1 / 48 kHz /   640 kbps / DN -27dB

SUBTITLES:

Codec                           Language        Bitrate         Description     
-----                           --------        -------         -----------     
Presentation Graphics           German          0.022 kbps                      
Presentation Graphics           English         0.026 kbps                      
Presentation Graphics           Spanish         0.025 kbps                      
Presentation Graphics           French          0.025 kbps                      
Presentation Graphics           Italian         0.040 kbps                      
Presentation Graphics           Korean          0.016 kbps                      
Presentation Graphics           Chinese         0.022 kbps                      
Presentation Graphics           Dutch           0.035 kbps                      
Presentation Graphics           Portuguese      0.024 kbps                      
Presentation Graphics           Russian         0.018 kbps                      
Presentation Graphics           Turkish         0.032 kbps                      

FILES:

Name            Time In         Length          Size            Total Bitrate   
----            -------         ------          ----            -------------   
00000.M2TS      0:00:00.000     1:33:13.588     23,962,324,992  34,271          
00066.M2TS      1:33:13.588     0:00:01.001     116,736         933             

CHAPTERS:

Number          Time In         Length          Avg Video Rate  Max 1-Sec Rate  Max 1-Sec Time  Max 5-Sec Rate  Max 5-Sec Time  Max 10Sec Rate  Max 10Sec Time  Avg Frame Size  Max Frame Size  Max Frame Time  
------          -------         ------          --------------  --------------  --------------  --------------  --------------  --------------  --------------  --------------  --------------  --------------  
1               0:00:00.000     0:05:32.373     19,274 kbps     26,563 kbps     00:01:10.945    23,162 kbps     00:05:19.277    22,401 kbps     00:01:33.510    100,476 bytes   749,150 bytes   00:05:31.581    
2               0:05:32.373     0:07:11.264     20,128 kbps     28,958 kbps     00:08:50.196    23,770 kbps     00:07:20.356    22,834 kbps     00:07:16.144    104,936 bytes   934,211 bytes   00:06:58.751    
3               0:12:43.637     0:07:00.545     19,742 kbps     26,455 kbps     00:12:47.391    23,732 kbps     00:14:57.605    22,631 kbps     00:17:40.934    102,924 bytes   719,935 bytes   00:14:32.746    
4               0:19:44.183     0:04:57.297     20,367 kbps     26,082 kbps     00:22:25.802    23,432 kbps     00:23:02.631    22,797 kbps     00:20:12.085    106,185 bytes   669,896 bytes   00:23:43.296    
5               0:24:41.480     0:06:53.246     20,237 kbps     25,988 kbps     00:27:24.100    23,596 kbps     00:25:21.853    22,823 kbps     00:28:31.042    105,505 bytes   794,524 bytes   00:25:26.858    
6               0:31:34.726     0:06:17.585     20,747 kbps     27,393 kbps     00:36:43.034    23,868 kbps     00:34:33.529    22,891 kbps     00:34:33.529    108,167 bytes   898,346 bytes   00:34:22.018    
7               0:37:52.311     0:04:44.242     20,201 kbps     28,400 kbps     00:40:45.985    23,690 kbps     00:40:32.471    23,017 kbps     00:40:37.393    105,317 bytes   777,656 bytes   00:40:37.476    
8               0:42:36.554     0:05:54.896     18,774 kbps     26,415 kbps     00:47:17.376    22,102 kbps     00:47:17.417    20,968 kbps     00:47:41.358    97,876 bytes    691,246 bytes   00:46:55.687    
9               0:48:31.450     0:05:50.767     18,516 kbps     24,991 kbps     00:49:28.590    22,394 kbps     00:49:27.589    20,612 kbps     00:53:52.270    96,535 bytes    597,155 bytes   00:52:09.751    
10              0:54:22.217     0:05:31.539     18,948 kbps     25,585 kbps     00:56:09.908    22,618 kbps     00:58:40.642    21,678 kbps     00:58:40.558    98,784 bytes    566,950 bytes   00:55:01.089    
11              0:59:53.756     0:05:54.103     18,398 kbps     24,512 kbps     01:02:12.228    22,177 kbps     01:02:02.093    21,834 kbps     01:02:03.344    95,920 bytes    494,448 bytes   01:02:23.740    
12              1:05:47.860     0:04:42.782     18,370 kbps     28,004 kbps     01:06:53.968    23,618 kbps     01:06:39.161    21,667 kbps     01:06:46.836    95,771 bytes    695,732 bytes   01:06:26.273    
13              1:10:30.643     0:04:33.064     18,893 kbps     24,912 kbps     01:13:38.080    23,238 kbps     01:12:52.034    22,220 kbps     01:12:46.028    98,499 bytes    488,569 bytes   01:13:50.050    
14              1:15:03.707     0:04:52.083     19,240 kbps     24,933 kbps     01:19:34.186    21,815 kbps     01:19:21.882    20,906 kbps     01:16:58.530    100,307 bytes   470,554 bytes   01:17:16.423    
15              1:19:55.790     0:06:04.572     19,369 kbps     27,316 kbps     01:25:43.304    23,876 kbps     01:23:19.160    22,994 kbps     01:23:15.156    100,980 bytes   742,379 bytes   01:21:40.145    
16              1:26:00.363     0:07:13.224     22,661 kbps     27,535 kbps     01:32:13.069    25,078 kbps     01:30:33.928    24,320 kbps     01:30:34.595    118,144 bytes   854,846 bytes   01:26:31.019    
17              1:33:13.588     0:00:01.001     93 kbps         0 kbps          00:00:00.000    0 kbps          00:00:00.000    0 kbps          00:00:00.000    506 bytes       830 bytes       01:33:13.713    

STREAM DIAGNOSTICS:

File            PID             Type            Codec           Language                Seconds                 Bitrate                 Bytes           Packets         
----            ---             ----            -----           --------                --------------          --------------          -------------   -----           
00000.M2TS      4113 (0x1011)   0x1B            AVC                                     5593.505                19,699                  13,773,583,463  74,935,176      
00000.M2TS      4352 (0x1100)   0x81            AC3             deu (German)            5593.505                640                     447,472,640     2,621,910       
00000.M2TS      4353 (0x1101)   0x83            TrueHD          eng (English)           5593.505                5,054                   3,533,538,322   23,233,154      
00000.M2TS      4354 (0x1102)   0x81            AC3             spa (Spanish)           5593.505                640                     447,472,640     2,621,910       
00000.M2TS      4355 (0x1103)   0x81            AC3             fra (French)            5593.505                640                     447,472,639     2,621,909       
00000.M2TS      4356 (0x1104)   0x81            AC3             ita (Italian)           5593.505                640                     447,472,640     2,621,910       
00000.M2TS      4357 (0x1105)   0x81            AC3             kor (Korean)            5593.505                640                     447,472,640     2,621,910       
00000.M2TS      4358 (0x1106)   0x81            AC3             zho (Chinese)           5593.505                640                     447,472,640     2,621,910       
00000.M2TS      4359 (0x1107)   0x81            AC3             nld (Dutch)             5593.505                640                     447,472,640     2,621,910       
00000.M2TS      4360 (0x1108)   0x81            AC3             por (Portuguese)        5593.505                640                     447,472,640     2,621,910       
00000.M2TS      4361 (0x1109)   0x81            AC3             rus (Russian)           5593.505                640                     447,472,640     2,621,910       
00000.M2TS      4362 (0x110A)   0x81            AC3             tur (Turkish)           5593.505                640                     447,472,640     2,621,910       
00000.M2TS      4608 (0x1200)   0x90            PGS             deu (German)            5593.505                0                       15,464          91              
00000.M2TS      4609 (0x1201)   0x90            PGS             eng (English)           5593.505                0                       17,848          104             
00000.M2TS      4610 (0x1202)   0x90            PGS             spa (Spanish)           5593.505                0                       17,228          100             
00000.M2TS      4611 (0x1203)   0x90            PGS             fra (French)            5593.505                0                       17,198          101             
00000.M2TS      4612 (0x1204)   0x90            PGS             ita (Italian)           5593.505                0                       27,626          157             
00000.M2TS      4613 (0x1205)   0x90            PGS             kor (Korean)            5593.505                0                       11,254          68              
00000.M2TS      4614 (0x1206)   0x90            PGS             zho (Chinese)           5593.505                0                       15,232          90              
00000.M2TS      4615 (0x1207)   0x90            PGS             nld (Dutch)             5593.505                0                       24,786          141             
00000.M2TS      4616 (0x1208)   0x90            PGS             por (Portuguese)        5593.505                0                       16,629          97              
00000.M2TS      4617 (0x1209)   0x90            PGS             rus (Russian)           5593.505                0                       12,327          74              
00000.M2TS      4618 (0x120A)   0x90            PGS             tur (Turkish)           5593.505                0                       22,137          127             
00066.M2TS      4113 (0x1011)   0x1B            AVC                                     0.918                   110                     12,567          77              

[/code]
<---- END FORUMS PASTE ---->

QUICK SUMMARY:

Disc Title: SHREK FOREVER AFTER 3D
Disc Label: Shrek.4.3DBD.2010.complete.Bluray.untouched.german.ML-mvc-HDA
Disc Size: 34,857,039,391 bytes
Protection: AACS
Playlist: 01500.MPLS
Size: 23,962,441,728 bytes
Length: 1:33:14.589
Total Bitrate: 34.27 Mbps
Video: MPEG-4 AVC Video / 19696 kbps / 1080p / 23.976 fps / 16:9 / High Profile 4.1
Audio: German / Dolby Digital Audio / 5.1 / 48 kHz /   640 kbps / DN -27dB
Audio: English / Dolby TrueHD Audio / 7.1 / 48 kHz /  4413 kbps / 24-bit (AC3 Embedded: 5.1 / 48 kHz /   640 kbps / DN -31dB)
Audio: Spanish / Dolby Digital Audio / 5.1 / 48 kHz /   640 kbps / DN -27dB
Audio: French / Dolby Digital Audio / 5.1 / 48 kHz /   640 kbps / DN -27dB
Audio: Italian / Dolby Digital Audio / 5.1 / 48 kHz /   640 kbps / DN -27dB
Audio: Korean / Dolby Digital Audio / 5.1 / 48 kHz /   640 kbps / DN -27dB
Audio: Chinese / Dolby Digital Audio / 5.1 / 48 kHz /   640 kbps / DN -27dB
Audio: Dutch / Dolby Digital Audio / 5.1 / 48 kHz /   640 kbps / DN -27dB
Audio: Portuguese / Dolby Digital Audio / 5.1 / 48 kHz /   640 kbps / DN -27dB
Audio: Russian / Dolby Digital Audio / 5.1 / 48 kHz /   640 kbps / DN -27dB
Audio: Turkish / Dolby Digital Audio / 5.1 / 48 kHz /   640 kbps / DN -27dB
Subtitle: German / 0.022 kbps
Subtitle: English / 0.026 kbps
Subtitle: Spanish / 0.025 kbps
Subtitle: French / 0.025 kbps
Subtitle: Italian / 0.040 kbps
Subtitle: Korean / 0.016 kbps
Subtitle: Chinese / 0.022 kbps
Subtitle: Dutch / 0.035 kbps
Subtitle: Portuguese / 0.024 kbps
Subtitle: Russian / 0.018 kbps
Subtitle: Turkish / 0.032 kbps


********************
PLAYLIST: 00000.MPLS
********************

<--- BEGIN FORUMS PASTE --->
[code]
                                                                                                                Total   Video                                             
Title                                                           Codec   Length  Movie Size      Disc Size       Bitrate Bitrate Main Audio Track                          Secondary Audio Track
-----                                                           ------  ------- --------------  --------------  ------- ------- ------------------                        ---------------------
00000.MPLS                                                      AVC     1:33:13 23,962,324,992  34,857,039,391  34.27   19.70   DD AC3 5.1 640Kbps                        
[/code]

[code]

DISC INFO:

Disc Title:     SHREK FOREVER AFTER 3D
Disc Label:     Shrek.4.3DBD.2010.complete.Bluray.untouched.german.ML-mvc-HDA
Disc Size:      34,857,039,391 bytes
Protection:     AACS
Extras:         BD-Java
BDInfo:         0.7.5.5

PLAYLIST REPORT:

Name:                   00000.MPLS
Length:                 1:33:13.588 (h:m:s.ms)
Size:                   23,962,324,992 bytes
Total Bitrate:          34.27 Mbps

VIDEO:

Codec                   Bitrate             Description     
-----                   -------             -----------     
MPEG-4 AVC Video        19699 kbps          1080p / 23.976 fps / 16:9 / High Profile 4.1

AUDIO:

Codec                           Language        Bitrate         Description     
-----                           --------        -------         -----------     
Dolby Digital Audio             German          640 kbps        5.1 / 48 kHz /   640 kbps / DN -27dB
Dolby TrueHD Audio              English         5054 kbps       7.1 / 48 kHz /  4414 kbps / 24-bit (AC3 Embedded: 5.1 / 48 kHz /   640 kbps / DN -31dB)
Dolby Digital Audio             Spanish         640 kbps        5.1 / 48 kHz /   640 kbps / DN -27dB
Dolby Digital Audio             French          640 kbps        5.1 / 48 kHz /   640 kbps / DN -27dB
Dolby Digital Audio             Italian         640 kbps        5.1 / 48 kHz /   640 kbps / DN -27dB
Dolby Digital Audio             Korean          640 kbps        5.1 / 48 kHz /   640 kbps / DN -27dB
Dolby Digital Audio             Chinese         640 kbps        5.1 / 48 kHz /   640 kbps / DN -27dB
Dolby Digital Audio             Dutch           640 kbps        5.1 / 48 kHz /   640 kbps / DN -27dB
Dolby Digital Audio             Portuguese      640 kbps        5.1 / 48 kHz /   640 kbps / DN -27dB
Dolby Digital Audio             Russian         640 kbps        5.1 / 48 kHz /   640 kbps / DN -27dB
Dolby Digital Audio             Turkish         640 kbps        5.1 / 48 kHz /   640 kbps / DN -27dB

SUBTITLES:

Codec                           Language        Bitrate         Description     
-----                           --------        -------         -----------     
Presentation Graphics           German          0.022 kbps                      
Presentation Graphics           English         0.026 kbps                      
Presentation Graphics           Spanish         0.025 kbps                      
Presentation Graphics           French          0.025 kbps                      
Presentation Graphics           Italian         0.040 kbps                      
Presentation Graphics           Korean          0.016 kbps                      
Presentation Graphics           Chinese         0.022 kbps                      
Presentation Graphics           Dutch           0.035 kbps                      
Presentation Graphics           Portuguese      0.024 kbps                      
Presentation Graphics           Russian         0.018 kbps                      
Presentation Graphics           Turkish         0.032 kbps                      

FILES:

Name            Time In         Length          Size            Total Bitrate   
----            -------         ------          ----            -------------   
00000.M2TS      0:00:00.000     1:33:13.588     23,962,324,992  34,271          

CHAPTERS:

Number          Time In         Length          Avg Video Rate  Max 1-Sec Rate  Max 1-Sec Time  Max 5-Sec Rate  Max 5-Sec Time  Max 10Sec Rate  Max 10Sec Time  Avg Frame Size  Max Frame Size  Max Frame Time  
------          -------         ------          --------------  --------------  --------------  --------------  --------------  --------------  --------------  --------------  --------------  --------------  
1               0:00:00.000     1:33:13.588     19,699 kbps     28,958 kbps     00:08:50.196    25,078 kbps     01:30:33.928    24,320 kbps     01:30:34.595    102,702 bytes   934,211 bytes   00:06:58.751    

STREAM DIAGNOSTICS:

File            PID             Type            Codec           Language                Seconds                 Bitrate                 Bytes           Packets         
----            ---             ----            -----           --------                --------------          --------------          -------------   -----           
00000.M2TS      4113 (0x1011)   0x1B            AVC                                     5593.505                19,699                  13,773,583,463  74,935,176      
00000.M2TS      4352 (0x1100)   0x81            AC3             deu (German)            5593.505                640                     447,472,640     2,621,910       
00000.M2TS      4353 (0x1101)   0x83            TrueHD          eng (English)           5593.505                5,054                   3,533,538,322   23,233,154      
00000.M2TS      4354 (0x1102)   0x81            AC3             spa (Spanish)           5593.505                640                     447,472,640     2,621,910       
00000.M2TS      4355 (0x1103)   0x81            AC3             fra (French)            5593.505                640                     447,472,639     2,621,909       
00000.M2TS      4356 (0x1104)   0x81            AC3             ita (Italian)           5593.505                640                     447,472,640     2,621,910       
00000.M2TS      4357 (0x1105)   0x81            AC3             kor (Korean)            5593.505                640                     447,472,640     2,621,910       
00000.M2TS      4358 (0x1106)   0x81            AC3             zho (Chinese)           5593.505                640                     447,472,640     2,621,910       
00000.M2TS      4359 (0x1107)   0x81            AC3             nld (Dutch)             5593.505                640                     447,472,640     2,621,910       
00000.M2TS      4360 (0x1108)   0x81            AC3             por (Portuguese)        5593.505                640                     447,472,640     2,621,910       
00000.M2TS      4361 (0x1109)   0x81            AC3             rus (Russian)           5593.505                640                     447,472,640     2,621,910       
00000.M2TS      4362 (0x110A)   0x81            AC3             tur (Turkish)           5593.505                640                     447,472,640     2,621,910       
00000.M2TS      4608 (0x1200)   0x90            PGS             deu (German)            5593.505                0                       15,464          91              
00000.M2TS      4609 (0x1201)   0x90            PGS             eng (English)           5593.505                0                       17,848          104             
00000.M2TS      4610 (0x1202)   0x90            PGS             spa (Spanish)           5593.505                0                       17,228          100             
00000.M2TS      4611 (0x1203)   0x90            PGS             fra (French)            5593.505                0                       17,198          101             
00000.M2TS      4612 (0x1204)   0x90            PGS             ita (Italian)           5593.505                0                       27,626          157             
00000.M2TS      4613 (0x1205)   0x90            PGS             kor (Korean)            5593.505                0                       11,254          68              
00000.M2TS      4614 (0x1206)   0x90            PGS             zho (Chinese)           5593.505                0                       15,232          90              
00000.M2TS      4615 (0x1207)   0x90            PGS             nld (Dutch)             5593.505                0                       24,786          141             
00000.M2TS      4616 (0x1208)   0x90            PGS             por (Portuguese)        5593.505                0                       16,629          97              
00000.M2TS      4617 (0x1209)   0x90            PGS             rus (Russian)           5593.505                0                       12,327          74              
00000.M2TS      4618 (0x120A)   0x90            PGS             tur (Turkish)           5593.505                0                       22,137          127             

[/code]
<---- END FORUMS PASTE ---->

QUICK SUMMARY:

Disc Title: SHREK FOREVER AFTER 3D
Disc Label: Shrek.4.3DBD.2010.complete.Bluray.untouched.german.ML-mvc-HDA
Disc Size: 34,857,039,391 bytes
Protection: AACS
Playlist: 00000.MPLS
Size: 23,962,324,992 bytes
Length: 1:33:13.588
Total Bitrate: 34.27 Mbps
Video: MPEG-4 AVC Video / 19699 kbps / 1080p / 23.976 fps / 16:9 / High Profile 4.1
Audio: German / Dolby Digital Audio / 5.1 / 48 kHz /   640 kbps / DN -27dB
Audio: English / Dolby TrueHD Audio / 7.1 / 48 kHz /  4414 kbps / 24-bit (AC3 Embedded: 5.1 / 48 kHz /   640 kbps / DN -31dB)
Audio: Spanish / Dolby Digital Audio / 5.1 / 48 kHz /   640 kbps / DN -27dB
Audio: French / Dolby Digital Audio / 5.1 / 48 kHz /   640 kbps / DN -27dB
Audio: Italian / Dolby Digital Audio / 5.1 / 48 kHz /   640 kbps / DN -27dB
Audio: Korean / Dolby Digital Audio / 5.1 / 48 kHz /   640 kbps / DN -27dB
Audio: Chinese / Dolby Digital Audio / 5.1 / 48 kHz /   640 kbps / DN -27dB
Audio: Dutch / Dolby Digital Audio / 5.1 / 48 kHz /   640 kbps / DN -27dB
Audio: Portuguese / Dolby Digital Audio / 5.1 / 48 kHz /   640 kbps / DN -27dB
Audio: Russian / Dolby Digital Audio / 5.1 / 48 kHz /   640 kbps / DN -27dB
Audio: Turkish / Dolby Digital Audio / 5.1 / 48 kHz /   640 kbps / DN -27dB
Subtitle: German / 0.022 kbps
Subtitle: English / 0.026 kbps
Subtitle: Spanish / 0.025 kbps
Subtitle: French / 0.025 kbps
Subtitle: Italian / 0.040 kbps
Subtitle: Korean / 0.016 kbps
Subtitle: Chinese / 0.022 kbps
Subtitle: Dutch / 0.035 kbps
Subtitle: Portuguese / 0.024 kbps
Subtitle: Russian / 0.018 kbps
Subtitle: Turkish / 0.032 kbps

